<?xml version="1.0" encoding="UTF-8" standalone="no"?>
<svg
   xmlns:dc="http://purl.org/dc/elements/1.1/"
   xmlns:cc="http://creativecommons.org/ns#"
   xmlns:rdf="http://www.w3.org/1999/02/22-rdf-syntax-ns#"
   xmlns:svg="http://www.w3.org/2000/svg"
   xmlns="http://www.w3.org/2000/svg"
   xmlns:xlink="http://www.w3.org/1999/xlink"
   version="1.1"
   id="svg2"
   viewBox="0 0 400.00001 500.00001"
   height="100%"
   width="100%">
  <defs
     id="defs4">
    <linearGradient
       id="linearGradient4370">
      <stop
         id="stop4372"
         offset="0"
         style="stop-color:#d40000;stop-opacity:1;" />
      <stop
         id="stop4374"
         offset="1"
         style="stop-color:#d40000;stop-opacity:0;" />
    </linearGradient>
    <linearGradient
       id="linearGradient4951">
      <stop
         id="stop4953"
         offset="0"
         style="stop-color:#7c7c7c;stop-opacity:1" />
      <stop
         id="stop4955"
         offset="1"
         style="stop-color:#949494;stop-opacity:0;" />
    </linearGradient>
    <linearGradient
       id="linearGradient4901">
      <stop
         id="stop4903"
         offset="0"
         style="stop-color:#b78d8e;stop-opacity:1;" />
      <stop
         id="stop4905"
         offset="1"
         style="stop-color:#b78d8e;stop-opacity:0;" />
    </linearGradient>
    <linearGradient
       id="linearGradient4891">
      <stop
         id="stop4893"
         offset="0"
         style="stop-color:#b78d8e;stop-opacity:1" />
      <stop
         id="stop4895"
         offset="1"
         style="stop-color:#d3a2a4;stop-opacity:0;" />
    </linearGradient>
    <linearGradient
       id="linearGradient4873">
      <stop
         id="stop4875"
         offset="0"
         style="stop-color:#daa8aa;stop-opacity:1" />
      <stop
         id="stop4877"
         offset="1"
         style="stop-color:#f0b9bb;stop-opacity:0;" />
    </linearGradient>
    <linearGradient
       id="linearGradient4848">
      <stop
         id="stop4850"
         offset="0"
         style="stop-color:#f0b9bb;stop-opacity:1;" />
      <stop
         id="stop4852"
         offset="1"
         style="stop-color:#f0b9bb;stop-opacity:0;" />
    </linearGradient>
    <linearGradient
       id="linearGradient4838">
      <stop
         id="stop4840"
         offset="0"
         style="stop-color:#f0b9bb;stop-opacity:1;" />
      <stop
         id="stop4842"
         offset="1"
         style="stop-color:#f0b9bb;stop-opacity:0;" />
    </linearGradient>
    <linearGradient
       id="linearGradient4822">
      <stop
         id="stop4824"
         offset="0"
         style="stop-color:#c09395;stop-opacity:1;" />
      <stop
         id="stop4826"
         offset="1"
         style="stop-color:#c09395;stop-opacity:0;" />
    </linearGradient>
    <linearGradient
       id="linearGradient4809">
      <stop
         id="stop4811"
         offset="0"
         style="stop-color:#ddaaac;stop-opacity:1;" />
      <stop
         id="stop4813"
         offset="1"
         style="stop-color:#ddaaac;stop-opacity:0;" />
    </linearGradient>
    <linearGradient
       id="linearGradient4797">
      <stop
         id="stop4799"
         offset="0"
         style="stop-color:#f0b9bb;stop-opacity:1;" />
      <stop
         id="stop4801"
         offset="1"
         style="stop-color:#cd9e9f;stop-opacity:0" />
    </linearGradient>
    <linearGradient
       id="linearGradient4785">
      <stop
         id="stop4787"
         offset="0"
         style="stop-color:#d7a6a7;stop-opacity:1;" />
      <stop
         id="stop4789"
         offset="1"
         style="stop-color:#d7a6a7;stop-opacity:0;" />
    </linearGradient>
    <linearGradient
       id="linearGradient4773">
      <stop
         id="stop4775"
         offset="0"
         style="stop-color:#d3a2a4;stop-opacity:1;" />
      <stop
         id="stop4777"
         offset="1"
         style="stop-color:#d3a2a4;stop-opacity:0;" />
    </linearGradient>
    <linearGradient
       id="linearGradient4755">
      <stop
         id="stop4757"
         offset="0"
         style="stop-color:#d8a6a8;stop-opacity:1;" />
      <stop
         id="stop4759"
         offset="1"
         style="stop-color:#d8a6a8;stop-opacity:0;" />
    </linearGradient>
    <linearGradient
       id="linearGradient4747">
      <stop
         id="stop4749"
         offset="0"
         style="stop-color:#d8a6a8;stop-opacity:1;" />
      <stop
         id="stop4751"
         offset="1"
         style="stop-color:#d8a6a8;stop-opacity:0;" />
    </linearGradient>
    <linearGradient
       id="linearGradient4731">
      <stop
         id="stop4733"
         offset="0"
         style="stop-color:#d3a2a4;stop-opacity:1;" />
      <stop
         id="stop4735"
         offset="1"
         style="stop-color:#d3a2a4;stop-opacity:0;" />
    </linearGradient>
    <linearGradient
       id="linearGradient4713">
      <stop
         id="stop4715"
         offset="0"
         style="stop-color:#d8a6a8;stop-opacity:1;" />
      <stop
         id="stop4717"
         offset="1"
         style="stop-color:#d8a6a8;stop-opacity:0;" />
    </linearGradient>
    <linearGradient
       gradientUnits="userSpaceOnUse"
       y2="224.45584"
       x2="323.07739"
       y1="227.08539"
       x1="327.04294"
       id="linearGradient4719"
       xlink:href="#linearGradient4713" />
    <linearGradient
       gradientTransform="matrix(1,0,0,-1,-0.57452426,455.05958)"
       gradientUnits="userSpaceOnUse"
       y2="227.44154"
       x2="320.67596"
       y1="230.25157"
       x1="323.56311"
       id="linearGradient4737"
       xlink:href="#linearGradient4731" />
    <linearGradient
       gradientUnits="userSpaceOnUse"
       y2="224.16737"
       x2="321.47302"
       y1="227.65872"
       x1="326.31473"
       id="linearGradient4753"
       xlink:href="#linearGradient4747" />
    <linearGradient
       gradientUnits="userSpaceOnUse"
       y2="226.80376"
       x2="326.19461"
       y1="228.83669"
       x1="325.72009"
       id="linearGradient4761"
       xlink:href="#linearGradient4755" />
    <linearGradient
       gradientUnits="userSpaceOnUse"
       y2="225.26065"
       x2="322.64056"
       y1="227.4169"
       x1="326.01562"
       id="linearGradient4779"
       xlink:href="#linearGradient4773" />
    <linearGradient
       gradientUnits="userSpaceOnUse"
       y2="227.50284"
       x2="295.125"
       y1="224.12784"
       x1="296.09375"
       id="linearGradient4791"
       xlink:href="#linearGradient4785" />
    <linearGradient
       gradientUnits="userSpaceOnUse"
       y2="228.84897"
       x2="293.31308"
       y1="234.99249"
       x1="307.50348"
       id="linearGradient4803"
       xlink:href="#linearGradient4797" />
    <linearGradient
       gradientTransform="translate(-0.13258252,-0.08838835)"
       gradientUnits="userSpaceOnUse"
       y2="239.11404"
       x2="320.38605"
       y1="238.41092"
       x1="332.3768"
       id="linearGradient4815"
       xlink:href="#linearGradient4809" />
    <linearGradient
       gradientUnits="userSpaceOnUse"
       y2="225.27197"
       x2="325.88782"
       y1="227.08392"
       x1="326.13092"
       id="linearGradient4830"
       xlink:href="#linearGradient4822" />
    <linearGradient
       gradientUnits="userSpaceOnUse"
       y2="241.20033"
       x2="315.6004"
       y1="233.24538"
       x1="297.24942"
       id="linearGradient4844"
       xlink:href="#linearGradient4838" />
    <radialGradient
       gradientUnits="userSpaceOnUse"
       gradientTransform="matrix(0.44989397,-0.49472655,1.1447141,1.0409791,-83.651228,151.05435)"
       r="9.9780617"
       fy="230.53018"
       fx="327.64578"
       cy="230.53018"
       cx="327.64578"
       id="radialGradient4856"
       xlink:href="#linearGradient4848" />
    <linearGradient
       y2="226.15991"
       x2="323.46021"
       y1="226.94405"
       x1="324.37692"
       gradientTransform="matrix(0.5,0.8660254,-0.8660254,0.5,362.03251,-167.92412)"
       gradientUnits="userSpaceOnUse"
       id="linearGradient4860"
       xlink:href="#linearGradient4731" />
    <linearGradient
       gradientUnits="userSpaceOnUse"
       y2="248.98051"
       x2="317.66635"
       y1="247.71703"
       x1="320.71524"
       id="linearGradient4879"
       xlink:href="#linearGradient4873" />
    <linearGradient
       gradientUnits="userSpaceOnUse"
       y2="226.8261"
       x2="323.30249"
       y1="227.29013"
       x1="322.68378"
       id="linearGradient4897"
       xlink:href="#linearGradient4891" />
    <linearGradient
       gradientUnits="userSpaceOnUse"
       y2="240.74715"
       x2="320.875"
       y1="239.37215"
       x1="323.96875"
       id="linearGradient4907"
       xlink:href="#linearGradient4901" />
    <linearGradient
       gradientUnits="userSpaceOnUse"
       y2="409.21225"
       x2="267.41422"
       y1="411.53622"
       x1="261.57675"
       id="linearGradient4957"
       xlink:href="#linearGradient4951" />
    <radialGradient
       gradientUnits="userSpaceOnUse"
       gradientTransform="matrix(0.80725374,0.08989913,-0.25581457,2.2971,92.454754,-243.23752)"
       r="4.6380344"
       fy="169.11292"
       fx="253.99214"
       cy="169.11292"
       cx="253.99214"
       id="radialGradient4376"
       xlink:href="#linearGradient4370" />
  </defs>
  <metadata
     id="metadata7">
    <rdf:RDF>
      <cc:Work
         rdf:about="">
        <dc:format>image/svg+xml</dc:format>
        <dc:type
           rdf:resource="http://purl.org/dc/dcmitype/StillImage" />
        <dc:title></dc:title>
      </cc:Work>
    </rdf:RDF>
  </metadata>
  <g
     transform="translate(0,-552.36216)"
     id="layer1">
    <g
       transform="translate(-179,468)"
       id="rocky">
      <g
         id="hamHook"
         transform="translate(-52.999999,34)">
        <g
           id="hook1">
          <path
             style="opacity:1;fill:#000000;fill-opacity:1;fill-rule:nonzero;stroke:none;stroke-width:4.34700012;stroke-linecap:round;stroke-miterlimit:4;stroke-dasharray:none;stroke-opacity:1"
             d="m 519.19315,97.591273 7.60139,4.949747 -2.29809,1.23744 -3.53554,-1.76777 -2.12132,6.18718 -1.19454,-3.99264 z"
             id="path4344" />
          <path
             style="opacity:1;fill:#000000;fill-opacity:1;fill-rule:nonzero;stroke:none;stroke-width:4.34700012;stroke-linecap:round;stroke-miterlimit:4;stroke-dasharray:none;stroke-opacity:1"
             d="m 519.98237,101.66602 c 0,0 0.24323,6.5205 1.17677,9.75489 0.38738,1.34214 1.71599,2.75521 2.06955,3.46231 0.35355,0.70711 5.5104,5.51225 5.5104,5.51225 l 13.43503,3.18198 0.70711,-3.0052 c 0,0 -9.19239,-0.53033 -11.31371,-1.41422 -2.12132,-0.88388 -5.44833,-4.15558 -7.42462,-6.89429 -0.72462,-1.00416 -1.36204,-2.38757 -1.54105,-3.3802 -0.48447,-2.68639 -1.13205,-7.57995 -1.13205,-7.57995 z"
             id="path4346" />
        </g>
        <g
           id="g4974">
          <g
             id="ham">
            <path
               id="path5046"
               d="m 466.24462,161.50704 c 9.21287,-7.23657 22.73909,-24.96041 36.61252,-37.00198 9.57567,-8.31129 21.84298,-13.12872 31.42857,-21.42857 5.86028,-5.074228 8.98008,-13.303432 15.71429,-17.142858 8.03219,-4.579457 23.8787,-14.364883 27.14286,-5.714285 6.83915,18.124959 1.01768,41.187303 -0.78145,57.772373 -2.28015,21.01935 -1.99665,35.3154 -4.21855,56.51334 -1.20781,11.52309 -6.04053,22.7041 -5.71429,34.28572 0.51884,18.41894 7.0709,36.21412 12.14286,53.92857 7.15079,24.97504 24.00245,55.61841 25.71429,73.57142 1.47344,15.45274 -1.21037,38.17675 -6.78573,46.07144 -8.66169,12.26493 -22.86466,19.4271 -37.49999,16.07143 -9.46463,-2.17011 -12.4839,-19.92509 -22.14286,-18.92858 -6.58478,0.67935 -14.64285,15.71429 -14.64285,15.71429 -9.69208,6.81786 -20.55299,12.60413 -32.14286,13.57143 -7.19383,0.6004 -15.85259,-0.0125 -21.07143,-5 -11.27814,-10.77826 -10.30568,-26.78245 -12.85714,-45 -2.55146,-18.21755 0,-63.57143 0,-63.57143 0,0 3.85592,-53.1014 3.56425,-79.68953 -0.20582,-18.76239 -3.74821,-56.16564 -3.74821,-56.16564 2.31155,-12.4316 6.11276,-15.36483 9.28572,-17.85714 z"
               style="opacity:1;fill:#a07349;fill-opacity:1;fill-rule:nonzero;stroke:none;stroke-width:4.34700012;stroke-linecap:round;stroke-miterlimit:4;stroke-dasharray:none;stroke-opacity:1" />
            <path
               id="path4310"
               d="m 496.38896,215.85489 c 0,0 16.60301,-20.96131 24.39518,-31.81981 6.78424,-9.45394 14.40367,-18.50409 19.44544,-28.99138 5.94304,-12.362 11.38031,-25.56412 12.37437,-39.24442 0.58834,-8.09671 -3.88909,-24.041634 -3.88909,-24.041634 -10.01086,16.689384 -21.7647,20.947304 -30.40559,32.173364 -9.0004,11.69311 -10.96016,20.50609 -11.31371,22.27386 -0.35355,1.76776 -8.83883,50.91169 -9.19239,52.3259 -0.35355,1.41421 -1.41421,17.32412 -1.41421,17.32412 z"
               style="opacity:1;fill:#800000;fill-opacity:1;fill-rule:nonzero;stroke:none;stroke-width:4.34700012;stroke-linecap:round;stroke-miterlimit:4;stroke-dasharray:none;stroke-opacity:1" />
            <path
               id="path4318"
               d="m 488.61078,255.45287 c 0.004,-12.22588 5.1949,-24.2206 10.96016,-35.00179 4.42644,-8.27755 11.89414,-14.52694 17.67767,-21.92031 7.9294,-10.13655 16.84179,-19.64747 23.33452,-30.75915 6.28468,-10.75562 14.84924,-34.29467 14.84924,-34.29467 0,0 1.84398,15.30223 2.47488,22.98097 1.36289,16.58784 2.47487,46.31549 2.82843,49.85102 0.35355,3.53554 -0.7503,19.43521 0.7071,28.99138 0.64676,4.24081 3.53554,12.37437 3.53554,12.37437 0,0 3.53553,11.66726 3.18198,14.49569 -0.35356,2.82843 -4.37976,-2.36114 -6.71752,-3.18198 -6.74272,-2.36754 -13.86953,-6.43558 -20.85965,-4.94975 -5.51037,1.1713 -8.16512,8.26204 -13.43503,10.25305 -10.94154,4.13379 -25.3395,9.06621 -35.00178,2.47487 -3.26396,-2.22658 -3.53667,-7.36261 -3.53554,-11.3137 z"
               style="opacity:1;fill:#800000;fill-opacity:1;fill-rule:nonzero;stroke:none;stroke-width:4.34700012;stroke-linecap:round;stroke-miterlimit:4;stroke-dasharray:none;stroke-opacity:1" />
            <path
               id="path4320"
               d="m 460.32651,310.78397 c 0,0 -0.93232,-14.86987 1.41422,-21.74353 2.11203,-6.18672 9.19238,-14.84925 10.96015,-16.26346 1.76777,-1.41421 10.6066,-7.77817 14.49569,-3.88909 3.88909,3.88909 12.56389,12.84234 20.85965,14.84925 7.98631,1.93205 16.36092,-1.81375 24.39518,-3.53554 5.03353,-1.07871 9.94335,-5.80219 14.84925,-4.24264 8.06856,2.56494 13.43503,16.97056 15.9099,19.79899 2.47487,2.82843 7.07107,9.8995 7.07107,16.26346 0,6.36396 -3.75158,29.26577 -8.48528,43.13351 -4.08622,11.97092 -8.44947,24.59282 -16.97057,33.94113 -6.91747,7.58901 -18.3513,9.59843 -26.16295,16.26345 -2.79767,2.38702 -4.38606,6.49168 -7.22704,8.33627 -1.63544,1.06185 -4.44022,-0.55809 -4.44022,-0.55809 0,0 -3.42828,-22.84042 -7.42462,-33.58758 -5.3664,-14.4316 -13.80641,-27.573 -21.92031,-40.65864 -6.23775,-10.0599 -17.32412,-28.10749 -17.32412,-28.10749 z"
               style="opacity:1;fill:#800000;fill-opacity:1;fill-rule:nonzero;stroke:none;stroke-width:4.34700012;stroke-linecap:round;stroke-miterlimit:4;stroke-dasharray:none;stroke-opacity:1" />
            <path
               id="path4322"
               d="m 470.93311,251.91733 c 0,0 12.02082,-18.03122 13.08148,-23.68808 1.06066,-5.65685 5.65685,-27.22361 4.59619,-36.06244 -1.06066,-8.83884 -0.35355,-38.18377 -0.35355,-38.18377 0,0 -10.41594,20.10726 -14.14213,30.75915 -3.24669,9.28114 -6.36397,24.74873 -7.07107,28.63782 -0.70711,3.88909 0.7071,25.45585 1.06066,27.93072 0.35355,2.47487 2.82842,10.6066 2.82842,10.6066 z"
               style="opacity:1;fill:#800000;fill-opacity:1;fill-rule:nonzero;stroke:none;stroke-width:4.34700012;stroke-linecap:round;stroke-miterlimit:4;stroke-dasharray:none;stroke-opacity:1" />
            <path
               id="path4324"
               d="m 564.27121,194.64168 c 0.62107,-8.12252 3.42079,-15.96441 6.01041,-23.68808 0.77234,-2.30353 2.82842,-6.71751 2.82842,-6.71751 0,0 -1.41141,25.02931 -2.82842,37.47666 -0.79557,6.98851 -3.18199,20.85965 -3.18199,20.85965 0,0 -0.35354,-7.07107 -1.06065,-9.54594 -0.66821,-2.33873 -2.07129,-11.19316 -1.82755,-17.34051 0.0142,-0.35787 0.034,-0.70657 0.0598,-1.04427 z"
               style="opacity:1;fill:#800000;fill-opacity:1;fill-rule:nonzero;stroke:none;stroke-width:4.34700012;stroke-linecap:round;stroke-miterlimit:4;stroke-dasharray:none;stroke-opacity:1" />
            <path
               id="path4326"
               d="m 555.78593,392.98513 c 1.06066,-1.76776 12.94469,-20.91872 16.61701,-32.52691 3.55412,-11.23456 4.35785,-23.23331 4.94974,-35.00178 0.59245,-11.77965 -1.41421,-35.35534 -1.41421,-35.35534 0,0 9.19239,26.16295 10.25305,30.75914 1.06066,4.5962 5.3033,19.44544 5.65685,24.74874 0.35356,5.3033 -4.94974,37.1231 -6.36396,38.53732 -0.60586,0.60586 -5.08257,11.33043 -11.21488,13.08614 -8.18192,2.34253 -18.4836,-4.24731 -18.4836,-4.24731 z"
               style="opacity:1;fill:#800000;fill-opacity:1;fill-rule:nonzero;stroke:none;stroke-width:4.34700012;stroke-linecap:round;stroke-miterlimit:4;stroke-dasharray:none;stroke-opacity:1" />
            <path
               id="path4328"
               d="m 475.17576,413.84478 c 0,0 4.83194,-12.07231 4.59619,-18.38477 -0.65787,-17.61543 -12.38591,-33.09219 -16.61701,-50.20458 -1.20446,-4.87133 -2.47487,-14.84925 -2.47487,-14.84925 0,0 17.81237,21.70485 23.68807,34.29468 5.06637,10.85568 9.8995,31.1127 9.54594,34.64823 -0.35355,3.53554 -6.57517,19.7821 -9.89949,21.56676 -4.13831,2.22165 -10.07989,5.40534 -8.83883,-7.07107 z"
               style="opacity:1;fill:#800000;fill-opacity:1;fill-rule:nonzero;stroke:none;stroke-width:4.34700012;stroke-linecap:round;stroke-miterlimit:4;stroke-dasharray:none;stroke-opacity:1" />
          </g>
          <path
             style="opacity:1;fill:#550000;fill-opacity:1;fill-rule:nonzero;stroke:none;stroke-width:4.34700012;stroke-linecap:round;stroke-miterlimit:4;stroke-dasharray:none;stroke-opacity:1"
             d="m 545.62129,121.32354 c 0,2.26993 -1.80187,5.61267 -4.24265,5.61267 -2.44077,0 -2.38648,-4.49179 -2.38648,-6.76171 0,-2.26993 1.18314,-1.98874 3.62392,-1.98874 2.44078,0 3.00521,0.86786 3.00521,3.13778 z"
             id="path4350" />
        </g>
        <path
           id="hook2"
           d="m 542.5625,120.67471 c 0,0 2.45625,0.50352 4.22519,-0.34182 1.76894,-0.84534 4.06121,-3.21111 5.18328,-5.45421 2.03689,-4.07188 1.91234,-8.42329 2.28033,-13.46707 0.36799,-5.043789 -0.10736,-12.849974 -0.22097,-17.726179 -0.25512,-10.949988 -0.82322,-34.237437 -0.82322,-34.237437 L 556,49.612208 c 0,0 2.0552,34.71407 0.75,52.000002 -0.30532,4.04366 -0.50876,8.22897 -2,12 -1.21541,3.0735 -3.1119,6.62485 -5.5,8.25 -2.3881,1.62515 -4.58678,1.77667 -7.25,1.5625 -0.93264,-0.075 0.5625,-2.75 0.5625,-2.75 z"
           style="opacity:1;fill:#000000;fill-opacity:1;fill-rule:nonzero;stroke:none;stroke-width:4.34700012;stroke-linecap:round;stroke-miterlimit:4;stroke-dasharray:none;stroke-opacity:1" />
      </g>
      <path
         style="opacity:1;fill:#f9c0c2;fill-opacity:1;fill-rule:nonzero;stroke:none;stroke-width:4.34700012;stroke-linecap:round;stroke-miterlimit:4;stroke-dasharray:none;stroke-opacity:1"
         d="m 285.87317,227.82519 4.29315,-7.82868 c 0,0 6.88167,-5.93465 7.38674,-6.06092 0.50508,-0.12627 2.09791,0.14814 3.03046,1.38896 2.20438,2.9331 1.07328,9.59645 0.82075,10.6066 -0.25254,1.01015 1.01015,13.38452 1.01015,13.38452 l 8.20749,9.84899 1.76777,4.67196 -7.57615,4.79822 -19.1929,-30.30458 0.12627,-0.12626 z"
         id="path4185" />
      <path
         style="opacity:1;fill:#808080;fill-opacity:1;fill-rule:nonzero;stroke:none;stroke-width:4.34700012;stroke-linecap:round;stroke-miterlimit:4;stroke-dasharray:none;stroke-opacity:1"
         d="m 230.06224,281.93148 c 0,0 2.41259,11.14567 4.04061,16.60439 0.19784,0.66337 0.69448,1.95716 0.69448,1.95716 0,0 2.18423,2.85715 3.7557,3.5789 3.10039,1.42397 6.9674,2.15618 10.18434,1.01978 0.78633,-0.27778 1.46707,-0.9848 1.78046,-1.75762 4.55953,-11.24374 7.55133,-27.56757 -0.77696,-36.39087 -3.17113,-3.35961 -8.90293,-4.6435 -13.81626,-1.09448 -3.21398,2.32153 -4.59968,10.96885 -4.59968,10.96885 z"
         id="arm1p1" />
      <path
         style="opacity:1;fill:#cccccc;fill-opacity:1;fill-rule:nonzero;stroke:none;stroke-width:4.34700012;stroke-linecap:round;stroke-miterlimit:4;stroke-dasharray:none;stroke-opacity:1"
         d="m 182.45783,553.87941 c -1.28788,4.78116 -1.74105,14.75235 -1.74105,14.75235 0,0 17.27747,8.14724 26.43504,10.93599 1.81848,0.55377 3.70351,0.89801 5.57773,1.25713 1.70139,0.32601 3.36758,0.73568 5.08106,0.81221 3.53753,0.15799 5.44961,0.28341 10.11335,-1.12566 1.65927,-0.50133 5.52796,-3.46865 5.06743,-5.1397 -1.24366,-4.51262 -6.90408,-6.33356 -10.56299,-9.25296 -2.13601,-1.7043 -6.63604,-4.81325 -6.63604,-4.81325 0,0 -5.09703,-3.45148 -7.3683,-7.93982 -1.16481,-2.30185 -0.70863,-6.83741 -0.70863,-6.83741 l -21.35965,-1.64774 c 0,0 -3.04772,5.84243 -3.89795,8.99886 z"
         id="path4159" />
      <path
         style="opacity:1;fill:#cccccc;fill-opacity:1;fill-rule:nonzero;stroke:none;stroke-width:4.34700012;stroke-linecap:round;stroke-miterlimit:4;stroke-dasharray:none;stroke-opacity:1"
         d="m 295.35714,518.6122 -2.54534,10.93 c 0,0 -0.0623,1.51273 0.40249,2.01643 2.72806,2.95633 7.41708,2.32762 11.60714,3.30357 3.96801,0.92423 7.3316,1.34022 11.96428,2.5 5.58755,1.39882 17.32143,5.17858 18.57143,5.35715 1.25,0.17857 7.21395,0.67133 10.35714,-1.42857 1.59616,-1.06635 4.01549,-3.09886 3.75001,-5 -0.5181,-3.71022 -4.82053,-5.93446 -8.03572,-7.85715 -3.58697,-2.14501 -8.44606,-1.49401 -11.96428,-3.75 -2.76726,-1.77445 -6.60715,-7.32143 -6.60715,-7.32143 l -5.17857,-5.89285 z"
         id="path4157" />
      <path
         style="opacity:1;fill:#999999;fill-opacity:1;fill-rule:nonzero;stroke:none;stroke-width:4.34700012;stroke-linecap:round;stroke-miterlimit:4;stroke-dasharray:none;stroke-opacity:1"
         d="m 262.14286,412.3622 7.14285,7.14286 25.71429,53.57143 0.71429,46.42857 11.42857,2.14286 c 0,0 20.71428,-3.57143 20.71428,-6.42857 0,-2.85715 -1.42857,-27.85715 -1.42857,-35.71429 0,-6.09256 0.89286,-21.61283 0.17857,-28.39286 -0.45521,-4.32091 -10.41114,-29.02173 -17.14285,-42.85714 -3.22056,-6.61909 -7.89838,-14.74021 -11.07143,-19.10714 -4.57599,-6.29772 -7.32143,-23.57143 -7.32143,-23.57143 0,0 -14.91151,8.14944 -30.35715,-2.85714 -6.03899,-4.3034 -8.11375,-5.75815 -13.26658,-9.8954 -7.35123,-5.90235 -21.84885,-16.3348 -21.84885,-16.3348 0,0 -4.71866,9.69668 -5.77743,15.51592 -0.46882,2.57674 -3.78959,12.01908 -4.82142,18.21428 -1.09807,6.59283 -1.42857,15.71428 -1.42857,20 0,4.28571 4.28571,35 4.28571,35 0,0 -0.57138,30.24874 -2.32142,48.03571 -0.14841,1.50838 -0.77103,4.07522 -2.33813,6.46556 -6.17343,9.41655 -21.92982,34.25426 -26.96647,49.87914 -2.1297,6.60684 -3.37398,20.61959 -3.37398,20.61959 l 18.57143,6.42857 12.85714,-2.14286 6.42858,-10 L 230,520.93363 c 0,0 22.14286,-27.85714 23.57143,-33.57143 1.42857,-5.71428 8.57143,-75 8.57143,-75 z"
         id="path4149" />
      <path
         style="opacity:1;fill:#808080;fill-opacity:1;fill-rule:nonzero;stroke:none;stroke-width:4.34700012;stroke-linecap:round;stroke-miterlimit:4;stroke-dasharray:none;stroke-opacity:1"
         d="m 295.46962,512.94074 8.83883,1.76777 10.35407,-0.75761 c 0,0 4.54568,-0.75762 6.31345,-1.26269 1.76777,-0.50508 5.80838,-3.03046 5.80838,-3.03046 l 1.76777,0 0.25253,5.80838 c 0,0 -20.45559,6.81853 -22.72843,6.81853 -2.27284,0 -10.85914,-3.283 -10.85914,-3.283 z"
         id="path4153" />
      <path
         style="opacity:1;fill:#808080;fill-opacity:1;fill-rule:nonzero;stroke:none;stroke-width:4.34700012;stroke-linecap:round;stroke-miterlimit:4;stroke-dasharray:none;stroke-opacity:1"
         d="m 185.17359,544.44487 c 1.72206,1.0211 3.11227,2.64531 4.98763,3.34614 3.8144,1.42547 8.05764,1.2622 12.12183,1.51523 2.43648,0.15169 5.32476,-0.0452 7.76554,0 2.27401,0.0421 4.24981,0.21043 6.37659,0.25253 0.35769,0.007 1.07329,0 1.07329,0 l -3.34613,6.25032 c 0,0 -9.40684,0.90872 -13.00884,0.57629 -3.602,-0.33244 -5.77626,-1.60345 -8.63548,-2.50096 -3.22576,-1.01257 -9.60727,-3.25235 -9.60727,-3.25235 l 0.69448,-7.00794 c 0,0 1.06828,0.5183 1.57836,0.82074 z"
         id="path4155" />
      <path
         style="opacity:0.20800003;fill:#f9c0c2;fill-opacity:1;fill-rule:nonzero;stroke:none;stroke-width:4.34700012;stroke-linecap:round;stroke-miterlimit:4;stroke-dasharray:none;stroke-opacity:1"
         d="m 300.35715,223.16578 c 0,0 -14.55358,1.96427 -14.19643,2.14284 3.21428,0.44644 1.60714,20.80358 1.60714,20.80358 l 18.92857,-3.66071 z"
         id="path4227" />
      <path
         style="opacity:1;fill:url(#linearGradient4803);fill-opacity:1;fill-rule:nonzero;stroke:none;stroke-width:0.30000001;stroke-linecap:round;stroke-miterlimit:4;stroke-dasharray:none;stroke-opacity:1"
         d="m 295.65902,226.77085 c -0.17677,0 -6.85009,6.36396 -6.85009,6.36396 0,0 15.68893,17.94283 16.04248,18.07541 0.73927,0.90325 0.23777,5.70599 2.25035,6.04114 4.09694,0.68224 11.53823,-3.78723 11.53823,-3.78723 l 1.06526,-13.83129 -21.2008,-13.09645 z"
         id="path4795" />
      <path
         style="opacity:1;fill:#808080;fill-opacity:1;fill-rule:nonzero;stroke:none;stroke-width:4.34700012;stroke-linecap:round;stroke-miterlimit:4;stroke-dasharray:none;stroke-opacity:1"
         d="m 225.20089,335.84837 c 0,0 2.89728,2.17538 5.45806,4.12955 7.83301,5.97745 21.40522,15.69287 21.50038,16.07351 0.12627,0.50508 10.93254,9.25012 16.41498,10.92227 6.24011,1.90324 12.49641,1.47824 18.56155,0.25254 1.441,-0.29121 4.16688,-1.8309 4.16688,-1.8309 l 0,1.95717 c 0,0 -5.16621,3.19365 -8.08122,3.78807 -4.58072,0.93408 -9.55652,0.89839 -14.01587,-0.50508 -3.91996,-1.23371 -7.30582,-4.10867 -10.73287,-6.37659 -5.25701,-3.47893 -10.31052,-7.04183 -15.27855,-10.92227 -6.01378,-4.69726 -17.04691,-15.27979 -17.04691,-15.27979 z"
         id="path4256" />
      <g
         id="ah2">
        <path
           id="hand2"
           d="m 403.59464,258.29838 11.85179,-2.81117 9.10714,-5.17858 c 0,0 4.64286,-2.23214 5.26786,-2.23214 0.625,0 2.8125,-0.13393 3.25893,-0.0447 0.44643,0.0893 2.76785,1.38393 2.76785,1.38393 0,0 1.91965,2.23215 2.00893,2.85715 0.0893,0.625 0.94643,4.32142 0.94643,4.32142 l -1.24442,2.01862 -0.60379,4.10639 c 0,0 -3.11607,1.96428 -5.4375,1.96428 -2.32143,0 -12.14286,0.53572 -12.14286,0.53572 l -5.45014,3.48214 c 0,0 -9.86545,0.94296 -10.46057,1.13393 -7.49317,2.40446 -7.0907,1.98385 -7.93195,-0.67095 -0.86366,-2.72553 -2.68372,-1.26541 2.09801,-4.85716 z"
           style="opacity:1;fill:#ffffff;fill-opacity:1;fill-rule:nonzero;stroke:none;stroke-width:4.34700012;stroke-linecap:round;stroke-miterlimit:4;stroke-dasharray:none;stroke-opacity:1" />
        <path
           id="arm2p2"
           d="m 364.69505,264.85135 12.34439,-0.91321 c 0,0 4.25166,-1.22571 6.31345,-2.0203 5.13229,-1.97793 9.91602,-4.22463 15.15995,-5.30199 2.57945,-0.52995 7.39294,-0.63592 9.03686,-0.65689 0.35935,-0.005 0.42043,0.66046 0.47255,1.03662 0.20445,1.47555 -0.91303,2.53023 -0.67824,4.41718 0.42754,3.43602 4.61837,6.52683 5.46764,8.78572 0.27713,0.73713 -0.97431,3.00516 -1.28497,3.03622 -1.26269,0.12626 -9.74484,3.2325 -14.41046,5.35065 -3.61842,1.64273 -6.80262,4.17679 -10.48033,5.68211 -5.6342,2.30613 -17.04633,4.9245 -17.5514,5.05076 -0.50508,0.12627 -16.71803,1.22481 -16.71803,1.22481 -7.38387,-2.3038 -12.56141,-7.9089 -8.62501,-18.32912 1.33571,-3.53582 19.31582,-6.88933 19.31582,-6.88933"
           style="opacity:1;fill:#808080;fill-opacity:1;fill-rule:nonzero;stroke:none;stroke-width:4.34700012;stroke-linecap:round;stroke-miterlimit:4;stroke-dasharray:none;stroke-opacity:1" />
        <path
           transform="translate(179,84.36216)"
           id="blood"
           d="m 253.4707,163.63867 c -0.72283,2e-5 -1.72524,0.0495 -2.3125,0.0645 l -0.96093,4.42188 c 0,0 -0.22967,3.4375 0.23046,4.125 0.46013,0.6875 0.70164,4.73116 0.70164,4.73116 l 4.33915,0.91161 2.89671,-2.32832 0.19336,-1.31445 0.15235,-0.24609 0.5,-2.44141 0.20508,-1.02148 c -0.24645,-1.08878 -0.50852,-2.28036 -0.5586,-2.63086 -0.0893,-0.625 -2.00976,-2.85743 -2.00976,-2.85743 0,0 -2.32115,-1.29351 -2.76758,-1.38281 -0.11161,-0.0223 -0.33175,-0.0313 -0.60938,-0.0312 z"
           style="opacity:1;fill:url(#radialGradient4376);fill-opacity:1;fill-rule:nonzero;stroke:none;stroke-width:4.34700012;stroke-linecap:round;stroke-miterlimit:4;stroke-dasharray:none;stroke-opacity:1" />
      </g>
      <path
         style="opacity:1;fill:#c2c2c2;fill-opacity:1;fill-rule:nonzero;stroke:none;stroke-width:4.34700012;stroke-linecap:round;stroke-miterlimit:4;stroke-dasharray:none;stroke-opacity:1"
         d="m 318.66894,255.31034 c 4.45246,0.4513 14.80767,4.966 15.43901,5.21854 0.63135,0.25254 11.36422,1.89403 11.36422,1.89403 l 18.30902,0 c 0,0 1.51522,2.27285 1.64149,2.77792 0.12627,0.50508 -1.26269,4.79823 -1.26269,5.68211 0,0.88388 1.26269,7.95495 1.38896,8.46003 0.12627,0.50507 0.75762,4.54568 0.88389,5.05076 0.12627,0.50508 -0.65092,5.39774 -1.51523,7.95495 -0.39176,1.15909 -0.65694,2.55664 -1.6415,3.283 -1.06388,0.78487 -15.02602,-0.63135 -16.41498,-0.75762 -1.38896,-0.12627 -2.72317,-1.82904 -4.29315,-2.0203 -2.34345,-0.28548 -6.9448,1.38896 -6.9448,1.38896 0,0 -5.61034,3.47959 -8.64943,3.0999 -10.2631,-1.28224 -17.43291,-13.17987 -23.17271,-17.42155 -10.68306,-7.89471 -6.63395,-26.79013 14.8679,-24.61073 z"
         id="arm2p1" />
      <path
         style="opacity:1;fill:#81a280;fill-opacity:1;fill-rule:nonzero;stroke:none;stroke-width:4.34700012;stroke-linecap:round;stroke-miterlimit:4;stroke-dasharray:none;stroke-opacity:1"
         d="m 306.74873,255.15714 c 0,0 1.91199,-0.38421 2.4477,-0.56281 0.53571,-0.17858 2.77666,-2.30093 4.46429,-2.41072 1.08106,-0.0703 3.03571,1.16072 3.03571,1.16072 0,0 -4.375,10.80357 -5.17857,11.33928 -0.80357,0.53572 -4.01786,8.03572 -4.01786,8.03572 0,0 -2.85714,1.16071 -2.85714,-0.26786 0,-1.42857 0.89285,-15.17857 0.89285,-15.17857 z"
         id="path4181" />
      <path
         style="opacity:1;fill:#808080;fill-opacity:1;fill-rule:nonzero;stroke:none;stroke-width:4.34700012;stroke-linecap:round;stroke-miterlimit:4;stroke-dasharray:none;stroke-opacity:1"
         d="m 306.96011,272.2719 c 0.37265,-2.20303 -0.18792,-4.531 0.3788,-6.69226 0.32705,-1.24725 2.31898,-1.74551 3.15672,-2.90419 1.85422,-2.56454 1.53008,-6.56851 3.91435,-8.64943 0.60122,-0.52473 2.04196,-0.74609 2.29451,-0.68299 0.13837,0.0346 0.99302,0.34756 1.49528,0.86565 0.41438,0.42744 0.47992,1.10737 0.47992,1.10737 0,0 -1.62281,1.73137 -2.2494,2.75058 -0.73524,1.19594 -1.32859,2.49864 -1.70464,3.85121 -0.53979,1.94151 -0.23507,4.05156 -0.75761,5.99778 -0.60406,2.24984 -1.58622,4.40183 -2.71479,6.43972 -0.46105,0.83254 -0.7678,1.95866 -1.64149,2.33598 -1.35657,0.58587 -3.8097,0.72854 -4.38785,-0.63135 -0.24179,-0.5687 1.14056,-0.72495 1.08306,-1.50465 -0.0582,-0.78952 0.5211,-1.50284 0.65314,-2.28342 z"
         id="path4165" />
      <path
         style="opacity:1;fill:#cccccc;fill-opacity:1;fill-rule:nonzero;stroke:none;stroke-width:4.34700012;stroke-linecap:round;stroke-miterlimit:4;stroke-dasharray:none;stroke-opacity:1"
         d="m 259.86437,238.56704 c 0,0 -13.4759,-0.97827 -18.18537,2.13759 -6.13358,4.05807 -9.16791,11.70008 -12.12183,18.43529 -2.23047,5.08567 -4.04061,16.16244 -4.04061,16.16244 0,0 -0.33703,7.39837 1.51522,10.35406 1.09414,1.74596 5.1139,3.47241 5.1139,3.47241 0,0 -1.45825,-4.26824 -0.56821,-6.69227 0.91061,-2.48005 3.17608,-3.62898 5.3033,-4.60882 3.53291,-1.62733 7.9557,-0.23918 11.56409,-1.64151 0.1024,-0.0398 0.20415,-0.0818 0.3052,-0.12626 2.08209,-0.91532 5.30331,-4.29315 5.30331,-4.29315 0,0 7.05384,-9.69795 8.08122,-15.40482 1.05947,-5.88512 -2.27022,-17.79496 -2.27022,-17.79496 z"
         id="shoulder" />
      <path
         style="opacity:1;fill:#cccccc;fill-opacity:1;fill-rule:nonzero;stroke:none;stroke-width:4.34700012;stroke-linecap:round;stroke-miterlimit:4;stroke-dasharray:none;stroke-opacity:1"
         d="m 225.35714,333.79078 c 0,0 -1.11972,1.34118 0.69263,3.17095 2.05991,2.07972 8.91753,6.28192 12.33411,9.24239 7.17185,6.21441 6.43088,4.86118 9.74868,7.14779 7.45841,5.14032 13.7445,11.58025 22.12183,14.066 5.80015,1.72104 12.77769,1.50625 18.14929,0.19126 1.71901,-0.42081 3.19263,-2.60275 3.19263,-2.60275 L 305.71429,343.79078 327.5,298.43363 c 0,0 5.28113,-12.16669 5,-18.57143 -0.22792,-5.19235 -2.73115,-10.15769 -5.35714,-14.64285 -2.2182,-3.78866 -8.57143,-10 -8.57143,-10 0,0 -2.12509,2.35945 -2.85714,3.74999 -2.39382,4.54711 -0.88893,10.07414 -4.82144,14.64286 -1.79297,2.08305 -0.22322,3.68404 -4.63016,2.42603 -4.40694,-1.25801 -9.71616,-9.40931 -13.76269,-14.39031 -2.08701,-2.56897 -3.60661,-5.6481 -6.07143,-7.85715 -4.67536,-4.1902 -11.00857,-7.35102 -16.07143,-9.82142 -1.99469,-0.97331 -2.66813,-3.79875 -4.67976,-4.73654 -2.31628,-1.07982 -7.64167,-0.6206 -7.64167,-0.6206 0,0 2.6928,15.07867 0.2541,23.06391 -3.91964,12.83441 -21.14695,34.25751 -21.14695,34.25751"
         id="path4161" />
      <path
         style="opacity:1;fill:#dee3db;fill-opacity:1;fill-rule:nonzero;stroke:none;stroke-width:0.30000001;stroke-linecap:round;stroke-miterlimit:4;stroke-dasharray:none;stroke-opacity:1"
         d="m 180.76563,567.23721 c 0,0 13.16621,6.45304 19.98437,9.125 3.96251,1.55286 7.95199,3.16402 12.125,4 1.86439,0.37349 3.79312,0.27391 5.6875,0.4375 2.08869,0.18036 4.20027,0.98667 6.26072,0.59976 2.55253,-0.47932 6.95803,-3.50601 6.95803,-3.50601 0,0 -3.65158,3.14566 -4.28125,3.46875 -1.95487,0.99369 -3.40774,1.23417 -5.21875,1.10933 -1.56157,-0.10765 -2.62051,-0.18174 -4.15625,-0.48438 -4.52137,-0.891 -9.07668,-1.53367 -13.50597,-2.95278 -8.23146,-2.63729 -23.88466,-10.3441 -23.88466,-10.3441 z"
         id="path4913" />
      <path
         style="opacity:1;fill:#dee3db;fill-opacity:1;fill-rule:nonzero;stroke:none;stroke-width:0.30000001;stroke-linecap:round;stroke-miterlimit:4;stroke-dasharray:none;stroke-opacity:1"
         d="m 292.75,529.42471 c 0,0 1.1485,1.58481 2.05158,2.16888 0.046,0.0298 0.0914,0.0569 0.13592,0.0811 3.6578,1.98853 8.16371,1.64 12.25,2.4375 3.37261,0.65822 6.80425,1.05412 10.125,1.9375 3.46997,0.92308 6.73842,2.5017 10.1875,3.5 2.34447,0.67858 4.7159,1.296 7.125,1.6875 1.83754,0.29862 3.7045,0.61643 5.5625,0.5 1.17049,-0.0734 2.32785,-0.37039 3.4375,-0.75 1.37545,-0.47054 2.8259,-0.93819 3.9375,-1.875 0.66298,-0.55874 1.09705,-1.11092 1.5,-1.77145 0.19492,-0.31951 0.42992,-1.03726 0.42992,-1.03726 0,0 -0.19376,1.932 -0.74242,2.74621 -1.08372,1.60823 -2.34161,2.84947 -4.5,3.6875 -2.15839,0.83803 -5.38778,0.73714 -8.0625,0.4375 -2.94911,-0.33038 -5.71458,-1.60338 -8.5625,-2.4375 -3.67493,-1.07634 -7.27659,-2.41814 -11,-3.3125 -4.0966,-0.984 -8.29176,-1.49949 -12.4375,-2.25 -2.87506,-0.52048 -5.92987,-0.43414 -8.625,-1.5625 -0.0259,-0.0109 -0.0523,-0.0224 -0.0791,-0.0346 -1.04025,-0.473 -2.15669,-0.93829 -2.67093,-1.90294 -0.35295,-0.66209 -0.0625,-2.25 -0.0625,-2.25 z"
         id="path4915" />
      <path
         style="opacity:1;fill:#dee3db;fill-opacity:1;fill-rule:nonzero;stroke:none;stroke-width:0.30000001;stroke-linecap:round;stroke-miterlimit:4;stroke-dasharray:none;stroke-opacity:1"
         d="m 325.0332,520.24219 c -0.66395,0.17482 -7.2936,1.95046 -10.10547,4.08789 -0.50197,0.38157 -1.3802,0.91556 -1.14843,1.50195 0.19763,0.50001 1.05473,0.31783 1.58984,0.26563 3.66357,-0.35732 9.68236,-3.359 11.15234,-4.11328 -0.52816,-0.58551 -1.02544,-1.16815 -1.48828,-1.74219 z"
         id="path4917" />
      <path
         style="opacity:1;fill:#dee3db;fill-opacity:1;fill-rule:nonzero;stroke:none;stroke-width:0.30000001;stroke-linecap:round;stroke-miterlimit:4;stroke-dasharray:none;stroke-opacity:1"
         d="m 327.47266,522.99023 c -2.05785,0.65353 -4.81604,1.64747 -6.32813,2.79688 -0.42874,0.3259 -1.17842,0.78236 -0.98047,1.2832 0.1688,0.42706 0.90037,0.27116 1.35742,0.22657 2.27792,-0.22217 5.61555,-1.65958 7.82227,-2.69922 -0.59418,-0.39945 -1.23352,-0.96881 -1.87109,-1.60743 z"
         id="path4919" />
      <path
         style="opacity:1;fill:#dee3db;fill-opacity:1;fill-rule:nonzero;stroke:none;stroke-width:0.30000001;stroke-linecap:round;stroke-miterlimit:4;stroke-dasharray:none;stroke-opacity:1"
         d="m 330.56445,525.27344 c -1.34062,0.49905 -2.71922,1.1093 -3.58007,1.76367 -0.36074,0.27421 -0.99273,0.65867 -0.82618,1.08008 0.14203,0.35932 0.75998,0.22695 1.14453,0.18945 1.78768,-0.17435 4.34414,-1.23695 6.20118,-2.09375 -1.01923,-0.22817 -2.01222,-0.51291 -2.93946,-0.93945 z"
         id="path4921" />
      <path
         style="opacity:1;fill:#dee3db;fill-opacity:1;fill-rule:nonzero;stroke:none;stroke-width:0.30000001;stroke-linecap:round;stroke-miterlimit:4;stroke-dasharray:none;stroke-opacity:1"
         d="m 211.43164,557.49414 c -0.3738,0.0382 -8.55414,0.88742 -12.24805,2.73438 -0.68718,0.34359 -1.77033,0.73197 -1.75,1.5 10e-4,0.0499 0.0102,0.1 0.0273,0.14843 0.2161,0.61528 0.96588,0.96294 1.59765,1.10157 0.95011,0.20848 1.92208,-0.30477 2.875,-0.5 3.51606,-0.72036 8.30517,-1.88315 11.83594,-2.75391 -0.71001,-0.60355 -1.51859,-1.35639 -2.33789,-2.23047 z"
         id="path4932" />
      <path
         style="opacity:1;fill:#dee3db;fill-opacity:1;fill-rule:nonzero;stroke:none;stroke-width:0.30000001;stroke-linecap:round;stroke-miterlimit:4;stroke-dasharray:none;stroke-opacity:1"
         d="m 215.24219,560.90039 c -2.82473,0.39386 -7.3454,1.15902 -9.8711,2.42188 -0.68718,0.34359 -1.77033,0.73197 -1.75,1.5 10e-4,0.0499 0.0102,0.098 0.0273,0.14648 0.2161,0.61528 0.96588,0.96489 1.59765,1.10352 0.95011,0.20848 1.92208,-0.30477 2.875,-0.5 2.84724,-0.58333 6.92112,-1.55315 10.34375,-2.38672 -1.4606,-1.04086 -2.67187,-1.88086 -2.67187,-1.88086 0,0 -0.30714,-0.22591 -0.55078,-0.4043 z"
         id="path4934" />
      <path
         style="opacity:1;fill:#dee3db;fill-opacity:1;fill-rule:nonzero;stroke:none;stroke-width:0.30000001;stroke-linecap:round;stroke-miterlimit:4;stroke-dasharray:none;stroke-opacity:1"
         d="m 219.57812,563.99023 c -2.3784,0.44701 -4.95024,1.06595 -6.60742,1.89454 -0.68718,0.34359 -1.77033,0.73197 -1.75,1.5 0.001,0.0499 0.0122,0.1 0.0293,0.14843 0.2161,0.61528 0.96589,0.96294 1.59766,1.10157 0.95011,0.20848 1.92208,-0.30477 2.875,-0.5 1.97056,-0.40372 4.62322,-1.02185 7.22461,-1.64063 -0.17084,-0.12634 -0.35612,-0.24461 -0.51954,-0.375 -0.75717,-0.60414 -1.80407,-1.37281 -2.84961,-2.12891 z"
         id="path4936" />
      <path
         style="opacity:1;fill:url(#linearGradient4957);fill-opacity:1;fill-rule:nonzero;stroke:none;stroke-width:0.30000001;stroke-linecap:round;stroke-miterlimit:4;stroke-dasharray:none;stroke-opacity:1"
         d="m 256,391.48633 c 1.06599,6.99571 6.38642,14.5091 6.14258,20.875 l 7.13476,7.19922 4.34766,-7.32422 z"
         id="path4949" />
      <path
         style="opacity:1;fill:#999999;fill-opacity:1;fill-rule:nonzero;stroke:none;stroke-width:0.30000001;stroke-linecap:round;stroke-miterlimit:4;stroke-dasharray:none;stroke-opacity:1"
         d="m 262.08839,412.73374 0.3125,-9.3412 -0.0324,-14.30916 -8.24354,-2.09617 c 0,0 -8.53661,20.65533 -8.53661,21.28033 0,0.625 16.5,4.4662 16.5,4.4662 z"
         id="path4947" />
      <path
         style="opacity:1;fill:#81a280;fill-opacity:1;fill-rule:nonzero;stroke:none;stroke-width:4.34700012;stroke-linecap:round;stroke-miterlimit:4;stroke-dasharray:none;stroke-opacity:1"
         d="m 273.92857,232.80863 c 0,0 0.98215,-1.16071 1.33929,-1.78571 0.35714,-0.625 1.16887,-3.15614 2.58928,-4.25864 1.14045,-0.88521 2.7531,-1.57687 4.19643,-1.54493 1.02599,0.0227 2.08621,0.33321 2.94643,0.89285 1.91036,1.24285 4.19644,4.82143 4.46429,5.17857 0.26786,0.35715 4.18352,4.74154 6.42857,6.96429 1.1979,1.186 2.71134,2.06517 3.75,3.39286 3.1423,4.01671 7.23214,13.48214 7.23214,13.48214 0,0 -0.35714,11.07143 -0.35714,12.14286 0,1.07143 0.89286,5.71428 0.89286,5.71428 l -16.25,-16.96428 c 0,0 -16.69643,-18.92857 -16.96429,-19.46429 -0.26786,-0.53571 -0.26786,-3.75 -0.26786,-3.75 z"
         id="path4179" />
      <g
         id="head">
        <path
           id="path4195"
           d="m 286.58036,223.24613 c 0,0 0.0666,3.85581 1.0396,3.54719 2.26889,-0.71969 6.63006,-2.99371 6.75504,-3.49362 0.0816,-0.32638 -0.5488,-2.96609 -0.39704,-4.44634 0.13064,-1.27427 1.11133,-3.67865 1.11133,-3.67865 0,0 -9.77679,4.37499 -9.77679,4.99999 0,0.625 1.26786,3.07143 1.26786,3.07143 z"
           style="opacity:1;fill:#000000;fill-opacity:1;fill-rule:nonzero;stroke:none;stroke-width:4.34700012;stroke-linecap:round;stroke-miterlimit:4;stroke-dasharray:none;stroke-opacity:1" />
        <path
           id="path4783"
           d="m 294.5,223.17471 -3.25,2.4375 c 0,0 0.90625,1.09375 1.15625,1.3125 0.25,0.21875 4.3125,1.40625 4.3125,1.40625 l 3.5625,-1.34375 -1.4375,-2.59375 c -3.13649,-0.0508 -2.89584,-0.8125 -4.34375,-1.21875 z"
           style="opacity:0.61100003;fill:url(#linearGradient4791);fill-opacity:1;fill-rule:nonzero;stroke:none;stroke-width:0.30000001;stroke-linecap:round;stroke-miterlimit:4;stroke-dasharray:none;stroke-opacity:1" />
        <path
           id="path4183"
           d="m 316.55664,210.27344 c -3.12446,2.42298 -4.60392,4.71943 -11.74219,7.45117 l -5.94531,6.06641 c -0.63134,0.63135 -1.9668,10.90322 -1.9668,11.7871 0,0.88389 9.67989,11.81856 10.4375,12.57618 0.75762,0.75761 3.6013,5.30092 6.18555,7.07031 0.52963,0.36263 1.54871,0.68215 2.19477,0.86083 0.34565,0.0956 0.7209,-0.16432 1.02203,-0.36473 1.27601,-0.84925 1.98978,-2.03317 3.09765,-3.39844 0.72145,-0.88907 1.54626,-1.73673 2.01954,-2.7793 0.16467,-0.36277 0.0736,-0.85475 0.19177,-1.26547 0.041,-0.14246 0.23087,-0.23605 0.1676,-0.36148 -0.0453,-0.0898 -0.0858,-0.17695 -0.16771,-0.22761 -0.38,-0.23519 -0.69109,-0.61194 -0.98073,-0.89739 -0.35889,-0.3537 -1.34684,-0.96486 -0.68555,-1.38087 0.94301,-0.59323 1.4562,-0.18314 2.23426,0.70811 0,0 0.14794,0.11592 0.26892,0.11841 0.12111,0.002 0.3138,-0.22194 0.3138,-0.22194 0.42032,-0.43494 0.66169,-0.90647 1.05803,-1.26864 0.84522,-0.77236 2.77734,-2.02148 2.77734,-2.02148 l 1.75195,0.15234 c 0,0 0.87415,0.0541 1.15235,-0.21289 0.52463,-0.50351 0.10437,-2.19511 0.15429,-3.29297 0.0774,-1.70212 0.22461,-5.10546 0.22461,-5.10547 l 0.37891,-3.41015 c 0,0 2.44931,-2.46172 2.82812,-2.9668 0.37881,-0.50507 1.84375,-5.74609 1.84375,-5.74609 l 1.76758,-3.66211 -8.33398,-5.68164 z"
           style="opacity:1;fill:#f9c0c2;fill-opacity:1;fill-rule:nonzero;stroke:none;stroke-width:4.34700012;stroke-linecap:round;stroke-miterlimit:4;stroke-dasharray:none;stroke-opacity:1" />
        <path
           id="path4871"
           d="m 317.07989,244.37048 c 0,0 1.10766,8.2096 1.20136,8.3971 0.0365,0.0729 0.57874,0.0419 1.1875,-0.0117 0.12009,-0.1413 0.2701,-0.30913 0.37109,-0.43359 0.72145,-0.88907 1.54625,-1.73673 2.01954,-2.7793 0.11278,-0.24846 0.10666,-0.55731 0.1289,-0.85938 -0.15071,-0.31696 -0.33203,-0.69726 -0.33203,-0.69726 0,0 -2.25005,-2.78125 -2.28125,-2.9375 -0.0312,-0.15625 -0.6875,-0.375 -0.6875,-0.375 z"
           style="opacity:0.60700001;fill:url(#linearGradient4879);fill-opacity:1;fill-rule:nonzero;stroke:none;stroke-width:0.30000001;stroke-linecap:round;stroke-miterlimit:4;stroke-dasharray:none;stroke-opacity:1" />
        <path
           id="path4763"
           d="m 321.82812,225.37783 c 0,0.14063 0.0312,1.71875 0.0312,1.71875 l 0.56251,0.96876 0.90624,0.37499 1.40625,0.0157 1.0625,-0.25 0.21875,-0.39063 c -0.3297,-0.65901 -1.31237,-1.38332 -2.46875,-2.125 L 322,225.14346 Z"
           style="opacity:1;fill:url(#linearGradient4779);fill-opacity:1;fill-rule:nonzero;stroke:none;stroke-width:0.30000001;stroke-linecap:round;stroke-miterlimit:4;stroke-dasharray:none;stroke-opacity:1" />
        <path
           id="path4833"
           d="m 299.875,223.62695 c -0.13899,0.0916 -0.91016,0.38439 -0.97656,0.48828 0,0 -1.2066,7.10579 -1.30303,11.39472 2.9841,5.48375 18.27374,20.18732 18.27374,20.18732 0.39826,0.11234 1.24805,-0.46094 1.24805,-0.46094 0,0 1.61478,-1.54879 2.72265,-2.91406 0.72145,-0.88907 1.54626,-1.73673 2.01954,-2.7793 0.0928,-0.20432 0.14996,-0.42124 0.19335,-0.64258 l -0.0547,-0.16601 c 0,-10e-6 -2.38619,-2.73871 -2.82813,-3.35743 -0.44194,-0.6187 -1.23633,-0.70703 -1.23633,-0.70703 l -5.39257,0.97266 -2.5625,-1.94531 c 0,0 -5.30418,-9.54535 -5.39258,-10.16407 -0.0884,-0.61871 -2.65039,-2.91797 -2.65039,-2.91797 l -1.50391,-6.54101 z"
           style="opacity:0.947;fill:url(#linearGradient4844);fill-opacity:1;fill-rule:nonzero;stroke:none;stroke-width:0.30000001;stroke-linecap:round;stroke-miterlimit:4;stroke-dasharray:none;stroke-opacity:1" />
        <path
           id="path4846"
           d="m 308.29856,221.33496 c 0,0 7.77817,3.18198 8.3085,4.24264 0.53033,1.06066 5.12652,4.5962 5.48008,5.48008 0.35355,0.88388 4.52911,1.17971 5.92202,-0.22097 0.65475,-0.65841 0.0884,-2.78423 0.0884,-2.78423 0,0 0.35355,-3.35876 0,-4.24264 -0.35356,-0.88389 -3.00521,-3.18198 -4.41942,-3.35876 -1.41422,-0.17678 -12.55115,-0.88388 -12.55115,-0.88388 z"
           style="opacity:0.947;fill:url(#radialGradient4856);fill-opacity:1;fill-rule:nonzero;stroke:none;stroke-width:0.30000001;stroke-linecap:round;stroke-miterlimit:4;stroke-dasharray:none;stroke-opacity:1" />
        <path
           id="path4216"
           d="m 294.91291,221.76427 c 0,0 -0.40621,-1.34262 -0.42293,-2.03537 -0.0163,-0.67774 -0.0172,-1.41919 0.3172,-2.00893 0.51525,-0.90876 2.11466,-1.92963 2.40543,-2.00893 0.29077,-0.0793 1.69173,-0.15859 1.85033,-0.10573 0.15859,0.0528 1.1102,1.00446 1.1102,1.11019 0,0.10574 -0.0265,0.1586 -0.1586,0.13217 -0.13217,-0.0265 -0.51802,-0.68997 -0.89873,-0.84587 -0.36702,-0.1503 -0.80117,-0.10703 -1.1895,-0.0265 -0.59834,0.12415 -1.17409,0.40305 -1.6653,0.76656 -0.43642,0.32298 -0.79895,0.7537 -1.08377,1.21593 -0.21373,0.34686 -0.42292,0.9516 -0.44936,1.13664 -0.0265,0.18504 0.0793,1.24237 0.10573,1.4274 0.0265,0.18503 0.0793,1.24237 0.0793,1.24237 z"
           style="opacity:0.86499999;fill:#d3a2a4;fill-opacity:1;fill-rule:nonzero;stroke:none;stroke-width:4.34700012;stroke-linecap:round;stroke-miterlimit:4;stroke-dasharray:none;stroke-opacity:1" />
        <path
           id="path4357"
           d="m 321.78125,225.04971 c 0,0 1.60102,-0.29335 2.40625,-0.25 0.59571,0.0321 1.28866,0.0397 1.74219,0.42969 0.53207,0.45751 0.80469,1.9453 0.80469,1.9453"
           style="opacity:1;fill:none;fill-opacity:1;fill-rule:nonzero;stroke:url(#linearGradient4719);stroke-width:0.30000001;stroke-linecap:round;stroke-miterlimit:4;stroke-dasharray:none;stroke-opacity:1" />
        <path
           id="path4359"
           d="m 322.0625,248.92471 c 0,0 -1.21655,-1.22589 -1.65625,-1.84375 -0.56619,-0.79561 -1.34375,-2.40625 -1.34375,-2.40625 l -1.96875,-0.25 c 0,0 3.00565,-0.1803 4.15625,0.125 0.60342,0.16013 1.84375,1.15625 1.84375,1.15625"
           style="opacity:0.60700001;fill:none;fill-opacity:1;fill-rule:nonzero;stroke:#d8a6a8;stroke-width:0.30000001;stroke-linecap:round;stroke-miterlimit:4;stroke-dasharray:none;stroke-opacity:1" />
        <path
           id="path4355"
           d="m 321.23437,224.95596 c 0,0 0.99628,0.1527 1.47651,0.3248 0.66798,0.23937 2.16411,1.33145 2.16411,1.33145 0,0 1.46464,-0.1436 1.70609,0.38723 0.13277,0.29193 -0.45608,0.84715 -0.45608,0.84715"
           style="opacity:1;fill:none;fill-opacity:1;fill-rule:nonzero;stroke:url(#linearGradient4753);stroke-width:0.2;stroke-linecap:round;stroke-miterlimit:4;stroke-dasharray:none;stroke-opacity:1" />
        <path
           id="path4363"
           d="m 325.86314,227.49839 c 0.50819,0.38713 -0.19099,1.00556 -0.97327,1.00556 -0.78227,-1e-5 -0.96114,-0.88186 -0.96114,-1.5718 -10e-6,-0.68994 0.77139,-0.31972 1.15053,-0.0309 z"
           style="opacity:0.61100003;fill:#ffffff;fill-opacity:1;fill-rule:nonzero;stroke:none;stroke-width:0.40000001;stroke-linecap:round;stroke-miterlimit:4;stroke-dasharray:none;stroke-opacity:1" />
        <path
           id="path4721"
           d="m 325.7327,228.38256 c 0.22447,-0.0814 0.53411,-0.4514 0.44573,-0.36301 -0.0884,0.0884 -0.22852,1.08555 -1.02628,1.54767 -0.79775,0.46212 -3.15341,0.71025 -3.15341,0.71025 l -3.40635,-6.33667 3.06038,1.05112 c 0.8683,-0.005 1.96955,0.5131 2.7551,1.1916 0,0 -0.58295,0.11192 -0.69554,0.34494 -0.28137,0.58227 0.0251,1.71729 0.40472,1.89739 0.53209,0.25241 1.61565,0.0344 1.61565,-0.0432 z"
           style="opacity:1;fill:url(#linearGradient4737);fill-opacity:1;fill-rule:nonzero;stroke:none;stroke-width:0.30000001;stroke-linecap:round;stroke-miterlimit:4;stroke-dasharray:none;stroke-opacity:1" />
        <path
           id="path4781"
           d="m 294.375,223.08096 0.5,1.78125 0.53125,0.53125 1.03125,0.15625 c 0,0 1.1875,0 1.28125,-0.1875 0.0937,-0.1875 0.28125,-1 0.1875,-1.1875 -0.0937,-0.1875 0.28125,-0.875 0.28125,-0.875 l -1.21875,-1.8125 z"
           style="opacity:1;fill:#f9c0c2;fill-opacity:1;fill-rule:nonzero;stroke:none;stroke-width:0.30000001;stroke-linecap:round;stroke-miterlimit:4;stroke-dasharray:none;stroke-opacity:1" />
        <path
           id="path4793"
           d="m 297.55937,226.94762 c 0.30936,0.44194 13.34664,15.77732 13.34664,15.77732"
           style="opacity:1;fill:#f9c0c2;fill-opacity:1;fill-rule:nonzero;stroke:none;stroke-width:0.30000001;stroke-linecap:round;stroke-miterlimit:4;stroke-dasharray:none;stroke-opacity:1" />
        <path
           id="path4899"
           d="m 324.21875,237.29971 -7.5625,3.84375 c 0,0 2.68852,3.21072 5.92911,3.65494 0.92093,0.12624 1.98352,-0.70323 3.093,-1.3493 0.8483,-0.49399 1.89278,-0.84182 1.91539,-0.80564 0.15625,0.25 -3.53125,-1.71875 -3.53125,-1.875 0,-0.15625 0.15625,-3.46875 0.15625,-3.46875 z"
           style="opacity:0.3;fill:url(#linearGradient4907);fill-opacity:1;fill-rule:nonzero;stroke:none;stroke-width:0.30000001;stroke-linecap:round;stroke-miterlimit:4;stroke-dasharray:none;stroke-opacity:1" />
        <path
           id="path4807"
           d="m 325.99258,235.83099 2.40899,-5.05185 c 0,0 -1.81666,0.6116 -2.69867,0.86041 -1.65508,0.46689 -3.64234,-1.12761 -5.82297,-1.08175 -2.88837,0.0608 -5.81592,1.66575 -5.81592,1.66575 l 2.5163,12.1334 6.51172,1.30274 c 0.32354,-0.35397 0.68415,-0.68121 1.03516,-1.00196 0.84522,-0.77236 2.77734,-2.02148 2.77734,-2.02148 l 0.20312,0.0176 0.23829,-0.41407 -4.06641,-4.46484 z"
           style="opacity:0.3;fill:url(#linearGradient4815);fill-opacity:1;fill-rule:nonzero;stroke:none;stroke-width:0.30000001;stroke-linecap:round;stroke-miterlimit:4;stroke-dasharray:none;stroke-opacity:1" />
        <path
           id="path4805"
           d="m 322.08714,241.13395 5.43588,1.63519 c 0,0 1.94455,0.17677 1.90035,0 -0.0442,-0.17678 -0.79549,-5.25911 -0.79549,-5.25911 l 0.0442,-7.51301 c 0,0 -0.61165,2.1032 -2.14129,3.77862 -2.05433,2.25012 -5.19614,4.40351 -5.32753,6.07668 -0.0406,0.51736 0.88389,1.28163 0.88389,1.28163 z"
           style="opacity:1;fill:#f9c0c2;fill-opacity:1;fill-rule:nonzero;stroke:none;stroke-width:0.30000001;stroke-linecap:round;stroke-miterlimit:4;stroke-dasharray:none;stroke-opacity:1" />
        <path
           id="path4191"
           d="m 323.81703,239.82075 0.82074,0.0631 c 0,0 1.21419,-0.0419 1.6415,0.31568 0.22479,0.18812 0.31568,0.82075 0.31568,0.82075 l -2.08344,-0.25254 z"
           style="opacity:1;fill:#d3a2a4;fill-opacity:1;fill-rule:nonzero;stroke:none;stroke-width:4.34700012;stroke-linecap:round;stroke-miterlimit:4;stroke-dasharray:none;stroke-opacity:1" />
        <path
           id="path4711"
           d="m 325.95412,227.77918 c 0,0.26414 -0.36517,0.19298 -0.62931,0.19298 -0.26416,1e-5 -0.47829,-0.21412 -0.47829,-0.47828 -2e-5,-0.26416 -0.0712,-0.61256 0.19299,-0.61254 0.26416,0 0.91463,0.63368 0.91461,0.89784 z"
           style="opacity:1;fill:#1a1a1a;fill-opacity:1;fill-rule:nonzero;stroke:none;stroke-width:0.30000001;stroke-linecap:round;stroke-miterlimit:4;stroke-dasharray:none;stroke-opacity:1" />
        <path
           id="path4361"
           d="m 321.73438,225.15908 c 0,0 0.12917,0.9877 0.14287,1.32656 0.0144,0.35601 0.16419,0.83641 0.41383,1.16383 0.236,0.30953 0.6006,0.51296 0.95738,0.66855 0.24471,0.10671 0.5162,0.15555 0.78282,0.16919 0.56522,0.0289 1.1774,0.0577 1.6875,-0.1875 0.15933,-0.0766 0.33633,-0.41919 0.33633,-0.41919"
           style="opacity:1;fill:none;fill-opacity:1;fill-rule:nonzero;stroke:url(#linearGradient4761);stroke-width:0.2;stroke-linecap:round;stroke-miterlimit:4;stroke-dasharray:none;stroke-opacity:1" />
        <path
           id="path4820"
           d="m 323.21409,225.44502 2.47488,-0.26517 c 0.28613,0.31108 0.58729,0.69731 1.10485,2.16552 0,0 -0.64082,0.7292 -0.64082,0.64081 0,-0.0257 -0.71957,-0.92533 -1.05071,-1.2482 -0.80794,-0.78778 -1.8882,-1.29296 -1.8882,-1.29296 z"
           style="opacity:0.947;fill:url(#linearGradient4830);fill-opacity:1;fill-rule:nonzero;stroke:none;stroke-width:0.30000001;stroke-linecap:round;stroke-miterlimit:4;stroke-dasharray:none;stroke-opacity:1" />
        <path
           id="path4187"
           d="m 328.74152,227.69892 c 0,0 0.75761,-1.57836 0.63135,-2.27284 -0.12627,-0.69448 -0.18941,-2.52539 -0.44195,-2.96733 -0.25253,-0.44194 -1.45069,-1.4955 -2.39911,-1.8309 -1.44754,-0.51192 -4.60438,-0.12881 -4.60438,-0.12881 l 3.65736,1.01269 c 0,0 1.52612,0.73808 2.02031,1.38896 0.47086,0.62016 0.57418,1.45296 0.75761,2.20971 0.20542,0.84749 0.37881,2.58852 0.37881,2.58852 z"
           style="opacity:1;fill:#000000;fill-opacity:1;fill-rule:nonzero;stroke:none;stroke-width:4.34700012;stroke-linecap:round;stroke-miterlimit:4;stroke-dasharray:none;stroke-opacity:1" />
        <path
           style="opacity:1;fill:url(#linearGradient4860);fill-opacity:1;fill-rule:nonzero;stroke:none;stroke-width:0.30000001;stroke-linecap:round;stroke-miterlimit:4;stroke-dasharray:none;stroke-opacity:1"
           d="m 325.16079,221.79064 -6.3512,2.16289 3.015,1.10834 c 0,0 0.93953,0.1502 1.35262,0.34415 0.61615,0.28929 1.53151,1.21816 1.53151,1.21816 l 1.84626,-0.0257 z"
           id="path4858" />
        <path
           id="path4865"
           d="m 321.96875,248.51846 0.3125,-0.53125 c -0.60706,-1.13193 -0.3038,-1.38764 0.10761,-1.85846 l 0.45803,0.13971 c 0,0 0.46561,-0.1875 0.34056,-0.3125 -0.125,-0.125 -0.9405,-0.73214 -1.46875,-1 -0.27643,-0.14017 -0.87634,-0.3108 -0.87634,-0.3108 l -1.49108,-0.17089 c -0.60644,-0.0695 0.35144,1.16727 0.64867,1.70044 0.36297,0.65109 0.68698,1.35262 1.21875,1.875 0.21032,0.20661 0.75005,0.46875 0.75005,0.46875 z"
           style="opacity:0.947;fill:#1a1a1a;fill-opacity:1;fill-rule:nonzero;stroke:none;stroke-width:0.30000001;stroke-linecap:round;stroke-miterlimit:4;stroke-dasharray:none;stroke-opacity:1" />
        <path
           id="path4887"
           d="m 322.90625,245.83096 c 0,0 -0.5,0.46875 -0.71875,0.375 -0.21875,-0.0937 -1,-0.65625 -1.125,-0.71875 -0.125,-0.0625 -0.71875,-0.34375 -0.71875,-0.34375 l -1.1875,-0.46875 -0.0625,-0.21875 2.3125,0.125 z"
           style="opacity:0.997;fill:#ffffff;fill-opacity:1;fill-rule:nonzero;stroke:none;stroke-width:0.30000001;stroke-linecap:round;stroke-miterlimit:4;stroke-dasharray:none;stroke-opacity:1" />
        <path
           id="path4867"
           d="m 323.21875,246.03408 c -0.0793,0.0304 -0.11442,0.0383 -0.25172,-0.04 -0.63149,-0.35997 -1.49882,-1.08576 -2.37328,-1.31935 -0.68441,-0.18282 -2.125,-0.0312 -2.125,-0.0312 0,0 -0.375,-0.21875 0.1875,-0.25 0.5625,-0.0312 1.69639,-0.12908 2.5,0.0937 0.79072,0.2192 2.26562,1.29687 2.26562,1.29687 0,0 -0.10284,0.21163 -0.20312,0.25 z"
           style="opacity:0.947;fill:#ffaaaa;fill-opacity:1;fill-rule:nonzero;stroke:none;stroke-width:0.30000001;stroke-linecap:round;stroke-miterlimit:4;stroke-dasharray:none;stroke-opacity:1" />
        <path
           id="path4869"
           d="m 318.90625,244.65908 0.3125,0.51563 c 0,0 0.35044,0.73982 0.57812,1.07812 0.5101,0.75794 0.88668,1.33692 1.53125,1.98438 0.20607,0.207 0.89063,0.6875 0.89063,0.6875 l 0.0156,-0.5 c 0,0 -0.0781,-0.1875 -0.15625,-0.25 -0.0781,-0.0625 -0.43752,-0.28124 -0.53125,-0.40625 -0.0937,-0.12499 -0.66303,-0.78883 -0.96875,-1.20313 -0.30963,-0.41961 -0.8125,-1.21875 -0.875,-1.29687 -0.0625,-0.0781 -0.5,-0.71875 -0.5,-0.71875 l -0.39062,-0.0312 z"
           style="opacity:0.947;fill:#ffaaaa;fill-opacity:1;fill-rule:nonzero;stroke:none;stroke-width:0.30000001;stroke-linecap:round;stroke-miterlimit:4;stroke-dasharray:none;stroke-opacity:1" />
        <path
           id="path4889"
           d="m 321.79988,225.51131 c 0,0 -0.002,1.09582 0.19887,1.59099 0.10432,0.25684 0.29111,0.4829 0.50147,0.66343 0.21156,0.18155 0.73597,0.39723 0.73597,0.39723 l 0.7513,0.24307 -0.37565,-1.65728 0.61872,-0.55243 -2.16552,-1.03856 z"
           style="opacity:0.406;fill:url(#linearGradient4897);fill-opacity:1;fill-rule:nonzero;stroke:none;stroke-width:0.30000001;stroke-linecap:round;stroke-miterlimit:4;stroke-dasharray:none;stroke-opacity:1" />
        <path
           id="path4909"
           d="m 330.65625,230.89346 1.46875,-3.0625 1.78125,-1.34375 0.0937,0.46875 -0.5625,1.15625 -2.4375,2.46875 z"
           style="opacity:0.3;fill:#b78d8e;fill-opacity:1;fill-rule:nonzero;stroke:none;stroke-width:0.30000001;stroke-linecap:round;stroke-miterlimit:4;stroke-dasharray:none;stroke-opacity:1" />
        <path
           id="path4189"
           d="m 331.89825,227.76205 c 0,0 0.52948,-1.09048 0.94701,-1.51523 0.47186,-0.48003 1.6938,-1.09944 1.6938,-1.09944 l -0.3973,1.21423 c 0,0 -0.43343,0.25081 -0.62686,0.40814 -0.4078,0.33169 -1.11158,1.11857 -1.11158,1.11857 z"
           style="opacity:1;fill:#000000;fill-opacity:1;fill-rule:nonzero;stroke:none;stroke-width:4.34700012;stroke-linecap:round;stroke-miterlimit:4;stroke-dasharray:none;stroke-opacity:1" />
        <path
           id="path4193"
           d="m 298.73231,222.35279 -0.92427,1.87503 c 0,0 1.59754,0.23977 2.54456,0.17663 0,0 0.59868,-1.13392 1.39825,-1.54057 1.17689,-0.59856 2.78901,-0.56927 3.56776,-0.7839 1.68442,-0.46424 3.67156,-2.64679 5.35381,-3.11885 3.19835,-0.89749 9.04086,-1.48998 9.04086,-1.48998 0,0 1.98052,-1.20894 3.0974,-1.39784 1.43617,-0.2429 3.49253,-0.18529 4.35248,0.38769 0.85995,0.57298 1.31004,1.5468 1.31004,1.5468 0,0 1.18377,0.20518 1.68884,0.0158 0.50508,-0.18941 1.87976,-0.2189 2.80949,0.0789 0.79412,0.25438 1.35683,1.01864 1.8309,1.70463 0.28439,0.41152 0.56822,1.38896 0.56822,1.38896 0,0 0.17361,0.35119 0.99436,0.0986 0.82075,-0.25254 3.10938,-4.26553 2.73057,-4.5812 -0.3788,-0.31567 -2.71478,-8.52316 -3.03045,-8.52316 -0.31568,0 -10.4172,-0.37881 -12.50064,-0.44194 -2.08344,-0.0631 -11.99556,0.69448 -12.43751,0.94701 -0.44194,0.25254 -7.57614,3.4724 -8.14435,3.85121 -0.31204,0.20803 -7.05883,-0.14726 -7.00866,1.71955 0.0551,2.05018 3.63185,-0.0178 4.27221,1.32917 0.77054,1.62073 0.84943,2.03053 -0.0618,3.75775 -0.87779,1.92919 -0.74305,1.59994 -1.45207,2.99966 z"
           style="opacity:1;fill:#000000;fill-opacity:1;fill-rule:nonzero;stroke:none;stroke-width:4.34700012;stroke-linecap:round;stroke-miterlimit:4;stroke-dasharray:none;stroke-opacity:1" />
        <path
           id="path4197"
           d="m 285.35714,222.09434 c 0,0 4.9294,-2.98988 7.52855,-4.22497 1.55126,-0.73714 3.16615,-1.3402 4.79289,-1.89109 5.51001,-1.86596 10.98205,-4.37738 16.78571,-4.77679 4.04788,-0.27858 8.22598,0.35015 12.05357,1.69643 3.78941,1.33285 7.95956,2.93771 10.35714,6.16071 0.65918,0.88611 -1.02733,2.33041 -1.02733,2.33041 0,0 4.13687,0.74571 5.67019,-0.36612 1.94627,-1.41127 2.63448,-4.29274 2.67857,-6.69643 0.0589,-3.21358 -1.53819,-6.06921 -3.25038,-9.07802 -0.0769,-0.13521 -0.15424,-0.26425 -0.23176,-0.38627 -1.88466,-2.9665 -7.32143,-6.875 -7.41072,-7.5 -0.0893,-0.625 -7.30468,-6.98461 -11.60714,-9.55357 -2.56719,-1.53285 -5.32379,-3.14591 -8.30357,-3.39286 -4.03781,-0.33463 -8.50763,0.62106 -11.91084,2.57817 -0.10819,0.0622 -0.21531,0.12545 -0.3213,0.18969 -3.43987,2.08474 -5.36533,5.61832 -7.5,8.83929 -2.22793,3.36168 -3.71921,7.15923 -5.44643,10.80357 -1.0043,2.11902 -1.37467,4.61167 -2.85715,6.42857 -0.80928,0.99184 -2.4612,1.47072 -2.58929,2.27678 -0.38033,2.39361 -1.85277,5.0402 2.58929,6.5625 z"
           style="opacity:1;fill:#333333;fill-opacity:1;fill-rule:nonzero;stroke:none;stroke-width:4.34700012;stroke-linecap:round;stroke-miterlimit:4;stroke-dasharray:none;stroke-opacity:1" />
        <path
           id="path4299"
           d="m 321.43164,201.26172 c -13.13659,0.87402 -33.85941,10.60983 -35.76172,11.55664 -0.10167,0.14728 -0.19846,0.29774 -0.3125,0.4375 -0.0187,0.0229 -0.043,0.0421 -0.0625,0.0644 0.0507,-0.0164 0.10627,-0.0468 0.1543,-0.0566 1.87924,-0.38464 22.09299,-8.26063 27.0664,-9.05078 4.90947,-0.77999 9.99539,-1.43841 14.9004,-0.63086 3.91799,0.64505 7.67972,2.29553 11.11132,4.29297 2.04406,1.18979 4.18575,3.366 5.49219,4.49219 -4.8e-4,-0.003 -10e-4,-0.005 -0.002,-0.008 -0.0566,-0.30994 -0.11723,-0.53986 -0.17578,-0.80079 -0.28667,-1.11166 -0.72636,-2.19787 -1.25782,-3.27929 -0.18889,-0.34808 -0.38364,-0.70046 -0.63281,-1.14063 -5.12399,-3.83374 -10.90044,-4.80876 -16.71094,-5.83008 -1.18701,-0.2251 -3.18088,-0.14165 -3.80854,-0.0467 -0.62766,0.0949 0,3e-5 0,3e-5 z"
           style="opacity:0.472;fill:#4d4d4d;fill-opacity:1;fill-rule:nonzero;stroke:none;stroke-width:4.34700012;stroke-linecap:round;stroke-miterlimit:4;stroke-dasharray:none;stroke-opacity:1" />
      </g>
      <path
         style="opacity:1;fill:#808080;fill-opacity:1;fill-rule:nonzero;stroke:none;stroke-width:4.34700012;stroke-linecap:round;stroke-miterlimit:4;stroke-dasharray:none;stroke-opacity:1"
         d="m 259.98801,238.8106 c 0,0 1.6113,-4.01732 3.15673,-5.42957 1.02862,-0.93997 2.43088,-1.45212 3.78807,-1.76777 2.0092,-0.4673 5.68211,-0.50508 6.18718,-0.12627 0.50508,0.37881 2.80707,4.46972 4.54569,6.43972 2.5629,2.90396 5.90603,5.0327 8.5863,7.82869 6.53369,6.81578 18.18274,21.71828 18.18274,21.71828 0,0 3.03046,4.92449 3.03046,5.6821 0,0.75762 0.92359,3.08514 0.17091,3.62613 -1.01156,0.72706 -2.91294,-0.39654 -4.11591,-1.16141 -3.57006,-2.26991 -5.54571,-6.39038 -8.30309,-9.59892 -3.08413,-3.58875 -5.66178,-7.67402 -9.21765,-10.796 -4.75487,-4.17469 -11.02435,-6.3331 -15.9099,-10.35407 -1.53981,-1.26732 -0.29693,-2.50939 -4.16688,-4.29315 -1.87457,-0.86404 -5.93465,-1.76776 -5.93465,-1.76776 z"
         id="path4163" />
      <g
         transform="translate(0.12499997,0.49999993)"
         id="ah1">
        <path
           id="hand1"
           d="m 276.79449,256.02539 c 0,0 1.69893,-2.957 4.3096,-3.2321 0.7953,-0.0838 5.85666,-2.07658 6.59549,-2.38261 2.36469,-0.97949 3.92516,-2.33294 5.876,-3.51886 1.98627,-1.20745 5.42957,-3.40927 5.93465,-3.66181 0.50508,-0.25253 6.56599,-1.76776 6.56599,-1.76776 0,0 2.77792,0.88388 3.15673,1.6415 0.37881,0.75761 2.65165,4.29314 2.65165,4.29314 l 0.50508,4.67196 c 0,0 -1.01016,7.95495 -1.6415,8.9651 -0.63135,1.01016 -3.81871,3.30467 -3.81871,3.30467 0,0 -3.15294,-0.41408 -5.00434,-0.7635 -0.50913,-0.0961 -3.33881,-0.69805 -5.03499,-0.75761 -1.5296,-0.0537 -3.16839,-0.23504 -4.57725,0.36302 -2.22328,0.94378 -4.90871,4.07217 -4.90871,4.07217 0,0 -8.23483,7.30308 -8.59302,7.10503 -1.53005,-0.84596 -7.75406,-4.10223 -9.10981,-6.35831 -1.5417,-2.56551 7.09314,-11.97403 7.09314,-11.97403 z"
           style="opacity:1;fill:#ffffff;fill-opacity:1;fill-rule:nonzero;stroke:none;stroke-width:4.34700012;stroke-linecap:round;stroke-miterlimit:4;stroke-dasharray:none;stroke-opacity:1" />
        <path
           id="arm1p2"
           d="m 234.86046,300.55617 c 0.55412,1.25493 1.87738,2.08006 3.09423,2.71344 2.59422,1.35031 6.89184,1.93653 8.52253,2.08478 2.77792,0.25254 8.61015,-4.37197 12.50064,-7.19734 8.05786,-5.85183 14.99726,-12.71392 22.18637,-20.00807 0.58287,-0.59138 2.06943,-3.08357 3.17746,-4.57262 1.51697,-2.03861 3.43545,-4.44313 4.7469,-5.965 0.42524,-0.49347 0.95944,-1.19356 -1.0695,-1.63562 -2.51129,-0.54715 -7.26133,-3.46161 -9.02122,-5.78222 -1.70713,-2.25104 0.44202,-5.78069 -1.3985,-7.06156 -0.25706,-0.1789 -0.95096,0.11262 -1.33172,0.31521 -0.98063,0.52175 -4.66461,4.0472 -7.09778,5.94607 -5.49777,4.2905 -12.20156,7.79419 -16.92932,12.29236 -1.95717,1.86212 -4.71003,4.9409 -5.21511,6.20359 -0.50507,1.26269 -9.7272,6.22643 -11.94448,11.21837 -1.5494,3.48829 -1.76226,7.95694 -0.2205,11.44861 z"
           style="opacity:1;fill:#808080;fill-opacity:1;fill-rule:nonzero;stroke:none;stroke-width:4.34700012;stroke-linecap:round;stroke-miterlimit:4;stroke-dasharray:none;stroke-opacity:1" />
      </g>
      <path
         id="path4331"
         d="m 304.25,267.11217 c 0,0 1.00021,7.07355 0.875,10.625 -0.0579,1.6431 -0.12634,3.35376 -0.75,4.875 -0.70187,1.71201 -3.25,4.5 -3.25,4.5 0,0 -1.25331,1.90655 -1.75,2.75 -0.0954,0.16205 5e-4,0.46387 0.17388,0.53673 0.19775,0.0831 0.57612,-0.28673 0.57612,-0.28673 0,0 1.17149,-1.66331 1.75,-2.5 1.17651,-1.70157 2.73893,-3.20139 3.5,-5.125 0.6981,-1.76447 0.81309,-3.72846 0.875,-5.625 0.0677,-2.0735 -0.33644,-3.69947 -0.55354,-6.19914 -0.11159,-1.28481 0.29241,-2.19721 -0.32146,-3.05086 -0.23959,-0.33317 -1.125,-0.5 -1.125,-0.5 z"
         style="opacity:1;fill:#ffffff;fill-opacity:1;fill-rule:nonzero;stroke:none;stroke-width:0.30000001;stroke-linecap:round;stroke-miterlimit:4;stroke-dasharray:none;stroke-opacity:1" />
      <path
         id="path4333"
         d="m 307,269.86217 c 0,0 -0.31302,-0.65077 -0.3125,-1 6.2e-4,-0.4151 0.375,-1.1875 0.375,-1.1875 0,0 3.1467,5.59917 3.85068,8.6875 0.35669,1.5648 -0.0513,3.15482 0.14932,4.8125 0.16792,1.38742 0.0691,3.09206 0.75,4.3125 0.27313,0.48953 1.05113,1.1471 1.05113,1.1471 0,0 0.24042,0.44584 0.0736,0.5426 -0.24522,0.14229 -0.58619,-0.0811 -0.81228,-0.2522 -0.3963,-0.29985 -0.6403,-0.78384 -0.8125,-1.25 -0.77185,-2.08951 -0.62596,-4.41145 -0.875,-6.625 -0.10059,-0.89406 0.15868,-1.07199 -0.25,-2.6875 -0.40868,-1.61551 -3.1875,-6.5 -3.1875,-6.5 z"
         style="opacity:1;fill:#ffffff;fill-opacity:1;fill-rule:nonzero;stroke:none;stroke-width:0.30000001;stroke-linecap:round;stroke-miterlimit:4;stroke-dasharray:none;stroke-opacity:1" />
    </g>
  </g>
</svg>
