<svg id="Layer_1" data-name="Layer 1" xmlns="http://www.w3.org/2000/svg" xmlns:xlink="http://www.w3.org/1999/xlink" viewBox="0 0 192.33 192.33"><defs><style>.cls-1,.cls-12,.cls-13,.cls-14,.cls-6{fill:none;}.cls-2,.cls-4{fill:#fff;}.cls-12,.cls-14,.cls-2,.cls-6{stroke:#231f20;}.cls-12,.cls-13,.cls-14,.cls-2,.cls-6{stroke-miterlimit:10;}.cls-2{stroke-width:2px;}.cls-3{clip-path:url(#clip-path);}.cls-5{fill:#a7a9ac;}.cls-6{stroke-width:0.34px;}.cls-7{fill:#231f20;}.cls-8{fill:#39b54a;}.cls-9{fill:#ed1c24;}.cls-10{fill:#ffde17;}.cls-11{fill:#00aeef;}.cls-12,.cls-13{stroke-width:2.06px;}.cls-13{stroke:#fff;}.cls-14{stroke-width:4.12px;}</style><clipPath id="clip-path" transform="translate(0.17 0.17)"><rect class="cls-1" x="30.05" y="30.05" width="131.9" height="131.9"/></clipPath></defs><circle class="cls-2" cx="96.17" cy="96.17" r="95.17"/><g class="cls-3"><rect class="cls-4" x="30.22" y="30.22" width="131.9" height="131.9"/><g class="cls-3"><path class="cls-5" d="M98.59,150.7a.69.69,0,0,1-.67.7l-6.41.1a.69.69,0,0,1-.7-.68L90.28,117a.68.68,0,0,1,.67-.7l6.41-.1a.68.68,0,0,1,.7.67Z" transform="translate(0.17 0.17)"/><path class="cls-6" d="M98.59,150.7a.69.69,0,0,1-.67.7l-6.41.1a.69.69,0,0,1-.7-.68L90.28,117a.68.68,0,0,1,.67-.7l6.41-.1a.68.68,0,0,1,.7.67Z" transform="translate(0.17 0.17)"/><path class="cls-5" d="M104.25,146a.7.7,0,0,1-.67.7l-4.36.06a.68.68,0,0,1-.7-.67l-.39-24.53a.69.69,0,0,1,.68-.69l4.36-.07a.69.69,0,0,1,.7.67Z" transform="translate(0.17 0.17)"/><path class="cls-6" d="M104.25,146a.7.7,0,0,1-.67.7l-4.36.06a.68.68,0,0,1-.7-.67l-.39-24.53a.69.69,0,0,1,.68-.69l4.36-.07a.69.69,0,0,1,.7.67Z" transform="translate(0.17 0.17)"/><rect class="cls-5" x="104.06" y="123.86" width="4.35" height="19.64" rx="0.69" transform="translate(-1.89 1.83) rotate(-0.89)"/><rect class="cls-6" x="104.06" y="123.86" width="4.35" height="19.64" rx="0.69" transform="translate(-1.89 1.83) rotate(-0.89)"/><rect class="cls-5" x="58.05" y="131.03" width="32.48" height="5.03" transform="translate(-1.92 1.35) rotate(-0.9)"/><rect class="cls-6" x="58.05" y="131.03" width="32.48" height="5.03" transform="translate(-1.92 1.35) rotate(-0.9)"/><path class="cls-5" d="M51,151.45a.69.69,0,0,0,.7.67l6.41-.1a.69.69,0,0,0,.68-.7l-.53-33.78a.7.7,0,0,0-.7-.68l-6.41.1a.7.7,0,0,0-.68.7Z" transform="translate(0.17 0.17)"/><path class="cls-6" d="M51,151.45a.69.69,0,0,0,.7.67l6.41-.1a.69.69,0,0,0,.68-.7l-.53-33.78a.7.7,0,0,0-.7-.68l-6.41.1a.7.7,0,0,0-.68.7Z" transform="translate(0.17 0.17)"/><path class="cls-5" d="M45.21,146.91a.68.68,0,0,0,.7.67l4.35-.07a.69.69,0,0,0,.68-.7l-.38-24.52a.68.68,0,0,0-.7-.67l-4.36.06a.7.7,0,0,0-.68.7Z" transform="translate(0.17 0.17)"/><path class="cls-6" d="M45.21,146.91a.68.68,0,0,0,.7.67l4.35-.07a.69.69,0,0,0,.68-.7l-.38-24.52a.68.68,0,0,0-.7-.67l-4.36.06a.7.7,0,0,0-.68.7Z" transform="translate(0.17 0.17)"/><rect class="cls-5" x="40.67" y="124.86" width="4.35" height="19.64" rx="0.69" transform="translate(-1.94 0.86) rotate(-0.9)"/><rect class="cls-6" x="40.67" y="124.86" width="4.35" height="19.64" rx="0.69" transform="translate(-1.94 0.86) rotate(-0.9)"/><rect class="cls-7" x="130.65" y="108.16" width="5.1" height="12.2" transform="translate(-39.12 82.08) rotate(-30)"/><rect class="cls-8" x="86.65" y="70.52" width="12.01" height="34.24" rx="0.69"/><rect class="cls-9" x="99.87" y="65.25" width="12.01" height="42.35" rx="0.69"/><rect class="cls-10" x="126" y="75.03" width="12.01" height="28.93" rx="0.69"/><rect class="cls-11" x="113.08" y="52.64" width="12.01" height="53.87" rx="0.69"/><polyline class="cls-12" points="90.28 99.04 98.91 79.94 108.22 91.82 115.43 71.87 123.22 79.94 132.01 55.65"/><path class="cls-13" d="M144.78,79.15a32.53,32.53,0,1,1-32.53-32.53A32.52,32.52,0,0,1,144.78,79.15Z" transform="translate(0.17 0.17)"/><circle class="cls-14" cx="112.42" cy="78.83" r="35.13"/><rect class="cls-7" x="137.48" y="114.26" width="10.92" height="33.73" rx="1.37" transform="translate(-46.25 89.21) rotate(-30)"/></g></g></svg>