<svg xmlns="http://www.w3.org/2000/svg" class="" viewBox="0 0 33.5 33.5"><defs><style>.cls-1{fill:none;stroke:#8D8D8D;stroke-miterlimit:10;stroke-width:3.5px;}</style></defs><g id="Layer_2" data-name="Layer 2"><g id="Layer_1-2" data-name="Layer 1"><circle class="cls-1" cx="16.75" cy="16.75" r="15"/><circle class="cls-1" cx="16.75" cy="10.95" r="4.46"/><path class="cls-1" d="M7.83,23.25a3.05,3.05,0,0,1,.56-1.48,3.52,3.52,0,0,1,1-.86,12.08,12.08,0,0,1,2.12-1.16,16.64,16.64,0,0,1,4.89-1.07c.62,0,7.27-.18,8.93,3.43a4,4,0,0,1,.33,1.14,10.75,10.75,0,0,1-3.22,3.14A11.54,11.54,0,0,1,16.75,28a10.78,10.78,0,0,1-3.37-.54,10.64,10.64,0,0,1-1.85-.82,11.49,11.49,0,0,1-1.65-1.18A12.67,12.67,0,0,1,7.83,23.25Z"/></g></g></svg>